Coordinates
version=1
nRows=38
nColumns=12
inDegrees=yes

Units are S.I. units (second, meters, Newtons, ...)
Angles are in degrees

endheader
time	SC_y	SC_z	SC_x	AC_y	AC_z	AC_x	GH_y	GH_z	GH_yy	EL_x	PS_y
       0.0              -22.18          17.38          60.87          62.51         -11.14         -3.081         -163.9          13.25          122.4          131.5          14.55
   0.02463              -22.18          17.38          60.87          62.51         -11.14         -3.082         -163.9          13.26          122.4          131.5          14.57
   0.04926              -22.18          17.38          60.87          62.51         -11.13         -3.083         -163.8          13.27          122.4          131.5          14.59
   0.07389              -22.19          17.38          60.87          62.51         -11.13         -3.084         -163.8          13.28          122.4          131.5          14.61
   0.09852               -22.2          17.38          60.87          62.51         -11.13         -3.085         -163.8           13.3          122.4          131.5          14.64
    0.1231               -22.2          17.37          60.87          62.51         -11.13         -3.086         -163.7          13.31          122.4          131.4          14.66
    0.1478              -22.21          17.37          60.86          62.51         -11.13         -3.087         -163.7          13.32          122.4          131.4          14.69
    0.1724              -22.21          17.37          60.86          62.51         -11.12         -3.089         -163.6          13.34          122.4          131.4          14.72
     0.197              -22.22          17.37          60.86          62.51         -11.12          -3.09         -163.6          13.36          122.4          131.4          14.75
    0.2217              -22.23          17.37          60.86          62.51         -11.12         -3.092         -163.6          13.37          122.4          131.4          14.78
    0.2463              -22.24          17.37          60.86          62.51         -11.12         -3.094         -163.5          13.39          122.3          131.3          14.82
    0.2709              -22.25          17.36          60.86          62.51         -11.11         -3.096         -163.4          13.41          122.3          131.3          14.86
    0.2956              -22.26          17.36          60.86          62.51         -11.11         -3.098         -163.4          13.43          122.3          131.3           14.9
    0.3202              -22.27          17.36          60.86          62.52         -11.11           -3.1         -163.3          13.46          122.3          131.2          14.95
    0.3448              -22.28          17.36          60.86          62.52          -11.1         -3.102         -163.2          13.48          122.3          131.2           15.0
    0.3694              -22.29          17.35          60.86          62.52          -11.1         -3.105         -163.2          13.51          122.3          131.2          15.05
    0.3941               -22.3          17.35          60.86          62.52         -11.09         -3.108         -163.1          13.54          122.3          131.1          15.11
    0.4187              -22.32          17.35          60.86          62.52         -11.09         -3.111         -163.0          13.57          122.3          131.1          15.17
    0.4433              -22.33          17.34          60.85          62.52         -11.08         -3.114         -162.9          13.61          122.2          131.0          15.24
     0.468              -22.35          17.34          60.85          62.52         -11.08         -3.118         -162.8          13.65          122.2          131.0          15.31
    0.4926              -22.37          17.34          60.85          62.52         -11.07         -3.122         -162.6          13.69          122.2          130.9           15.4
    0.5172              -22.39          17.33          60.85          62.52         -11.06         -3.127         -162.5          13.74          122.2          130.9          15.49
    0.5418              -22.41          17.33          60.85          62.53         -11.05         -3.132         -162.4          13.79          122.2          130.8          15.59
    0.5665              -22.44          17.32          60.85          62.53         -11.05         -3.137         -162.2          13.85          122.1          130.7           15.7
    0.5911              -22.47          17.31          60.84          62.53         -11.04         -3.143         -162.0          13.91          122.1          130.6          15.82
    0.6157               -22.5          17.31          60.84          62.53         -11.03          -3.15         -161.8          13.98          122.1          130.5          15.96
    0.6404              -22.53           17.3          60.84          62.53         -11.01         -3.158         -161.6          14.06          122.0          130.4          16.12
     0.665              -22.57          17.29          60.83          62.54          -11.0         -3.166         -161.3          14.15          122.0          130.3          16.29
    0.6896              -22.62          17.28          60.83          62.54         -10.98         -3.176         -161.0          14.25          121.9          130.2          16.49
    0.7143              -22.67          17.27          60.83          62.54         -10.97         -3.187         -160.7          14.37          121.9          130.0          16.71
    0.7389              -22.73          17.25          60.82          62.55         -10.95         -3.199         -160.3           14.5          121.8          129.8          16.97
    0.7635              -22.79          17.24          60.82          62.55         -10.92         -3.214         -159.9          14.65          121.8          129.6          17.26
    0.7881              -22.87          17.22          60.81          62.56          -10.9          -3.23         -159.4          14.82          121.7          129.4           17.6
    0.8128              -22.96           17.2           60.8          62.56         -10.86         -3.249         -158.8          15.03          121.6          129.1          17.99
    0.8374              -23.06          17.18          60.79          62.57         -10.83         -3.272         -158.1          15.26          121.5          128.8          18.45
     0.862              -23.19          17.15          60.78          62.58         -10.79         -3.299         -157.3          15.54          121.3          128.5          18.99
    0.8867              -23.33          17.11          60.77          62.59         -10.73          -3.33         -156.3          15.87          121.2          128.0          19.64
    0.9113              -23.51          17.07          60.76           62.6         -10.67         -3.368         -155.2          16.27          121.0          127.5          20.41
